<?xml version="1.0" encoding="UTF-8" standalone="no"?>
<!DOCTYPE svg PUBLIC "-//W3C//DTD SVG 1.1//EN"
 "http://www.w3.org/Graphics/SVG/1.1/DTD/svg11.dtd">
<!-- Generated by graphviz version 2.40.1 (20161225.0304)
 -->
<!-- Title: G Pages: 1 -->
<svg width="275pt" height="429pt"
 viewBox="0.00 0.00 274.61 429.48" xmlns="http://www.w3.org/2000/svg" xmlns:xlink="http://www.w3.org/1999/xlink">
<g id="graph0" class="graph" transform="scale(1 1) rotate(0) translate(4 425.478)">
<title>G</title>
<polygon fill="#ffffff" stroke="transparent" points="-4,4 -4,-425.478 270.612,-425.478 270.612,4 -4,4"/>
<!-- Player1 -->
<g id="node1" class="node">
<title>Player1</title>
<polygon fill="none" stroke="#000000" points="69.318,-421.36 10.7911,-421.36 10.7911,-362.833 69.318,-362.833 69.318,-421.36"/>
<text text-anchor="middle" x="40.0545" y="-387.8965" font-family="Times,serif" font-size="14.00" fill="#000000">Player1</text>
</g>
<!-- points4 -->
<g id="node3" class="node">
<title>points4</title>
<polygon fill="none" stroke="#000000" points="78.0545,-306.1575 -.0546,-288.1575 78.0545,-270.1575 156.1636,-288.1575 78.0545,-306.1575"/>
<text text-anchor="middle" x="78.0545" y="-283.9575" font-family="Times,serif" font-size="14.00" fill="#000000">points &gt;= 4</text>
</g>
<!-- Player1&#45;&gt;points4 -->
<g id="edge1" class="edge">
<title>Player1&#45;&gt;points4</title>
<path fill="none" stroke="#000000" d="M50.8422,-362.5898C56.4045,-347.3754 63.1297,-328.9804 68.5027,-314.284"/>
<polygon fill="#000000" stroke="#000000" points="71.8289,-315.3789 71.9755,-304.785 65.2545,-312.9752 71.8289,-315.3789"/>
</g>
<!-- Player2 -->
<g id="node2" class="node">
<title>Player2</title>
<polygon fill="none" stroke="#000000" points="146.318,-421.36 87.7911,-421.36 87.7911,-362.833 146.318,-362.833 146.318,-421.36"/>
<text text-anchor="middle" x="117.0545" y="-387.8965" font-family="Times,serif" font-size="14.00" fill="#000000">Player2</text>
</g>
<!-- Player2&#45;&gt;points4 -->
<g id="edge4" class="edge">
<title>Player2&#45;&gt;points4</title>
<path fill="none" stroke="#000000" d="M105.983,-362.5898C100.2743,-347.3754 93.3721,-328.9804 87.8577,-314.284"/>
<polygon fill="#000000" stroke="#000000" points="91.0835,-312.9181 84.2935,-304.785 84.5297,-315.3773 91.0835,-312.9181"/>
</g>
<!-- P1GrP2 -->
<g id="node5" class="node">
<title>P1GrP2</title>
<polygon fill="none" stroke="#000000" points="115.0545,-197.8 50.2401,-179.8 115.0545,-161.8 179.869,-179.8 115.0545,-197.8"/>
<text text-anchor="middle" x="115.0545" y="-175.6" font-family="Times,serif" font-size="14.00" fill="#000000"> (P1&gt;P2)</text>
</g>
<!-- points4&#45;&gt;P1GrP2 -->
<g id="edge2" class="edge">
<title>points4&#45;&gt;P1GrP2</title>
<path fill="none" stroke="#000000" d="M83.8358,-271.2266C89.817,-253.7103 99.2359,-226.126 106.1649,-205.834"/>
<polygon fill="#000000" stroke="#000000" points="109.5158,-206.8517 109.435,-196.2572 102.8913,-204.5897 109.5158,-206.8517"/>
<text text-anchor="middle" x="111.9374" y="-220" font-family="Times,serif" font-size="14.00" fill="#000000">Yes</text>
</g>
<!-- addPoints -->
<g id="node6" class="node">
<title>addPoints</title>
<polygon fill="none" stroke="#000000" points="266.6696,-325.7726 191.4394,-325.7726 191.4394,-250.5424 266.6696,-250.5424 266.6696,-325.7726"/>
<text text-anchor="middle" x="229.0545" y="-283.9575" font-family="Times,serif" font-size="14.00" fill="#000000">AddPoints</text>
</g>
<!-- points4&#45;&gt;addPoints -->
<g id="edge3" class="edge">
<title>points4&#45;&gt;addPoints</title>
<path fill="none" stroke="#000000" d="M156.2083,-288.1575C164.7146,-288.1575 173.1758,-288.1575 181.1595,-288.1575"/>
<polygon fill="#000000" stroke="#000000" points="181.3434,-291.6576 191.3434,-288.1575 181.3434,-284.6576 181.3434,-291.6576"/>
<text text-anchor="middle" x="173.803" y="-295.3575" font-family="Times,serif" font-size="14.00" fill="#000000">No</text>
</g>
<!-- diff2 -->
<g id="node4" class="node">
<title>diff2</title>
<polygon fill="none" stroke="#000000" points="171.0545,-109 80.4313,-91 171.0545,-73 261.6778,-91 171.0545,-109"/>
<text text-anchor="middle" x="171.0545" y="-86.8" font-family="Times,serif" font-size="14.00" fill="#000000"> (P1&#45;P2) &gt;= 2</text>
</g>
<!-- diff2&#45;&gt;addPoints -->
<g id="edge6" class="edge">
<title>diff2&#45;&gt;addPoints</title>
<path fill="none" stroke="#000000" d="M179.706,-107.4887C194.2565,-135.2202 222.0545,-188.2 222.0545,-188.2 222.0545,-188.2 223.9026,-214.5903 225.6996,-240.251"/>
<polygon fill="#000000" stroke="#000000" points="222.218,-240.6368 226.4081,-250.3679 229.2009,-240.1477 222.218,-240.6368"/>
<text text-anchor="middle" x="230.6078" y="-175.6" font-family="Times,serif" font-size="14.00" fill="#000000">No</text>
</g>
<!-- Win -->
<g id="node7" class="node">
<title>Win</title>
<ellipse fill="none" stroke="#000000" cx="171.0545" cy="-18" rx="27.8286" ry="18"/>
<text text-anchor="middle" x="171.0545" y="-13.8" font-family="Times,serif" font-size="14.00" fill="#000000">Win</text>
</g>
<!-- diff2&#45;&gt;Win -->
<g id="edge7" class="edge">
<title>diff2&#45;&gt;Win</title>
<path fill="none" stroke="#000000" d="M171.0545,-72.9551C171.0545,-64.8828 171.0545,-55.1764 171.0545,-46.1817"/>
<polygon fill="#000000" stroke="#000000" points="174.5546,-46.0903 171.0545,-36.0904 167.5546,-46.0904 174.5546,-46.0903"/>
</g>
<!-- P1GrP2&#45;&gt;diff2 -->
<g id="edge5" class="edge">
<title>P1GrP2&#45;&gt;diff2</title>
<path fill="none" stroke="#000000" d="M124.809,-164.3322C133.2439,-150.9568 145.5917,-131.3768 155.4067,-115.8129"/>
<polygon fill="#000000" stroke="#000000" points="158.4706,-117.516 160.8443,-107.1905 152.5496,-113.782 158.4706,-117.516"/>
<text text-anchor="middle" x="158.9374" y="-131.2" font-family="Times,serif" font-size="14.00" fill="#000000">Yes</text>
</g>
</g>
</svg>
